<?xml version="1.0" encoding="iso-8859-1"?>
<!-- Uploaded to: SVG Repo, www.svgrepo.com, Generator: SVG Repo Mixer Tools -->
<svg height="800px" width="800px" version="1.1" id="Capa_1" xmlns="http://www.w3.org/2000/svg" xmlns:xlink="http://www.w3.org/1999/xlink" 
	 viewBox="0 0 336.64 336.64" xml:space="preserve">
<g>
	<g>
		<path style="fill:#010002;" d="M240.728,18.496c-28.153,0-54.222,11.988-72.405,33.097
			c-18.183-21.109-44.252-33.097-72.405-33.097C43.028,18.496,0,61.519,0,114.413c0,24.144,9.219,47.412,25.825,65.367
			c0.462,0.544,0.925,1.082,1.882,2.034l0.745,0.745c107.525,107.519,133.203,132.327,133.404,132.523
			c2.051,1.969,4.743,3.062,7.582,3.062l0.283-0.005c2.899-0.076,5.711-1.338,7.707-3.476c0.196-0.212,20.935-22.36,128.405-129.83
			c0.158-0.158,0.402-0.402,0.669-0.734c19.439-18.341,30.138-43.072,30.138-69.685C336.645,61.519,293.617,18.496,240.728,18.496z
			 M290.707,169.011l-0.299,0.354c-75.113,75.113-108.357,109.07-121.21,122.33c-13.772-13.511-48.957-48.25-125.294-124.582
			l-0.566-0.566l-0.011,0.005l-0.054-0.065c-0.343-0.343-0.593-0.604-0.87-0.821l0.054-0.06l-0.81-0.925
			c-12.765-13.777-19.798-31.634-19.798-50.268c0-40.847,33.227-74.075,74.075-74.075c25.89,0,49.474,13.25,63.093,35.43
			c1.925,3.133,5.406,5.004,9.312,5.004s7.386-1.871,9.306-5.004c13.625-22.181,37.209-35.43,63.099-35.43
			c40.847,0,74.075,33.227,74.075,74.075C314.802,135.06,306.361,154.331,290.707,169.011z"/>
		<path style="fill:#010002;" d="M240.668,59.414c-6.01,0-10.878,4.873-10.878,10.878c0,6.01,4.868,10.878,10.878,10.878
			c18.993,0,34.446,15.458,34.446,34.451c0,6.01,4.873,10.878,10.878,10.878s10.878-4.868,10.878-10.878
			C296.87,84.635,271.654,59.414,240.668,59.414z"/>
		<path style="fill:#010002;" d="M94.618,59.414c-6.005,0-10.878,4.873-10.878,10.878c0,6.01,4.873,10.878,10.878,10.878
			c13.288,0,25.161,7.424,30.986,19.385c1.887,3.862,5.76,6.108,9.785,6.108c1.605,0,3.231-0.348,4.759-1.099
			c5.401-2.627,7.647-9.143,5.015-14.549C135.661,71.526,116.287,59.414,94.618,59.414z"/>
	</g>
</g>
</svg>